<svg xmlns="http://www.w3.org/2000/svg" height="1024" style="display: block;" version="1.1" viewBox="705 548 630 957" width="1024">
<path d="M 1022.94 561.837 L 1025.02 561.391 C 1028.72 590.91 1045.39 635.199 1057.83 662.76 C 1104.96 767.227 1178.06 858.484 1237.7 955.797 C 1261.58 994.769 1285.52 1033.08 1301.7 1075.99 C 1320.64 1126.19 1328.31 1184.21 1318.56 1237.31 C 1304.32 1314.64 1260.24 1383.28 1195.83 1428.38 C 1129.58 1474.17 1052.34 1492.6 972.258 1478.26 C 897.125 1464.81 827.226 1421.58 782.823 1359.13 C 727.592 1281.45 713.184 1191.41 741.534 1100.52 C 751.168 1069.64 766.707 1038.08 781.972 1009.13 C 830.59 916.945 896.846 834.996 949.673 745.131 C 975.533 701.139 998.971 651.668 1014.26 602.771 C 1018.09 590.549 1020.49 574.654 1022.94 561.837 z M 846.668 1253.97 C 890.45 1246.5 879.153 1213.24 881.322 1181.11 C 882.279 1168.55 884.239 1156.08 887.184 1143.83 C 903.764 1074.86 941.362 1026.41 979.626 969.437 C 994.29 947.604 972.983 914.095 944.083 915.147 C 919.17 920.946 911.399 937.59 897.745 956.952 C 850.191 1024.39 811.609 1099 806.936 1182.86 C 805.218 1213.69 804.035 1253.9 846.668 1253.97 z" fill="rgb(58,156,252)" transform="translate(0,0)"></path>
<path d="M 1022.94 561.837 L 1023.03 560.441 C 1023.06 559.704 1023.06 558.948 1023.56 558.36 C 1024.67 558.097 1024.95 561.078 1025.02 561.391 L 1022.94 561.837 z" fill="rgb(89,165,234)" fill-opacity="0.905882" transform="translate(0,0)"></path>
<metadata><recraft-signature>{"signed_by": "recraft", "signature_b64": "Xdu/ggwB05GnaDjgtesHwzDdQhMQjC9XvuIorUjF6aDKp47fd2WHVGHc5sW0ppDLoYufqzvgR0ev0+BFPOScCg==", "signing_algo": "Ed25519", "generation_timestamp": 1779413036, "identifier": "4850b347-a1b8-4186-adeb-18aee7b9a5a5"}</recraft-signature></metadata></svg>