<svg xmlns="http://www.w3.org/2000/svg" height="1152" style="display: block;" version="1.1" viewBox="543 214 509 1621" width="896">

<path d="M 560.091 959.611 C 580.56 968.974 599.975 978.273 621.14 986.138 C 723.794 1023.63 835.705 1027.52 940.717 997.265 C 975.54 986.862 1003.24 974.11 1035.95 959.156 C 1035.05 1066.74 1034.97 1174.33 1035.71 1281.91 C 1035.62 1282.33 1034.76 1283.5 1034.48 1283.92 C 1017.56 1291.36 988.482 1297.47 969.852 1304.8 C 954.644 1310.77 937.28 1317.51 921.66 1321.92 C 843.894 1343.85 761.724 1344.91 683.416 1325.01 C 662.215 1319.42 647.417 1312.99 627.129 1306.12 C 604.645 1298.51 582.428 1291.93 559.999 1283.51 L 560.091 959.611 z" fill="rgb(219,44,66)" transform="translate(0,0)"></path>

<path d="M 900.255 1117.73 L 901.984 1119.49 C 904.129 1125.82 904.661 1192.63 902.6 1198.93 C 901.198 1198.06 899.521 1197.44 899.394 1195.62 C 898.602 1184.18 896.92 1124.76 900.255 1117.73 z" fill="rgb(219,44,66)" transform="translate(0,0)"></path>

<path d="M 645.855 1115.52 C 653.444 1120.76 651.255 1139.19 649.666 1147.43 C 649.063 1147.23 646.742 1146.55 646.496 1146.01 C 644.408 1141.43 645.506 1120.11 645.855 1115.52 z" fill="rgb(219,44,66)" transform="translate(0,0)"></path>

<path d="M 696.796 1147.65 L 698.993 1147.1 C 698.86 1152.44 700.468 1176.45 699.691 1177.29 C 691.282 1186.38 696.448 1150.07 696.796 1147.65 z" fill="rgb(219,44,66)" transform="translate(0,0)"></path>
<path d="M 696.796 1147.65 C 696.796 1147.65 696.464 1137.87 698.436 1140.16 C 698.98 1140.79 698.965 1145.77 698.993 1147.1 L 696.796 1147.65 z" fill="rgb(100,21,26)" transform="translate(0,0)"></path>

<path d="M 990.474 1122.67 L 990.821 1124 C 992.349 1129.34 994.246 1152.81 991.577 1157.59 C 991.232 1157.48 988.302 1156.72 988.275 1156.29 C 987.675 1146.59 988.948 1132.19 990.474 1122.67 z" fill="rgb(219,44,66)" transform="translate(0,0)"></path>





<path d="M 775.925 231.414 C 802.093 228.119 868.26 230.196 882.781 258.384 C 885.28 263.235 885.422 277.381 885.64 283.537 C 886.155 298.066 894.518 310.358 877.416 317.053 C 887.934 332.362 895.16 360.786 891.093 379.913 C 890.314 383.577 880.452 386.292 876.614 387.677 C 872.98 393.256 871.746 396.441 871.973 403.231 C 872.555 420.675 876.354 439.406 879.598 456.535 C 885.784 490.379 893.397 523.946 902.416 557.147 C 909.305 583.104 917.071 610.183 922.912 636.307 C 928.452 661.089 924.155 690.762 933.105 715.267 C 938.919 731.184 950.423 737.826 961.417 749.551 C 1017.4 809.254 1037.21 872.338 1037 951.987 L 1021.74 958.173 C 1024.02 881.692 1006.92 827.836 957.884 768.408 C 945.89 753.872 929.211 743.655 921.657 726.375 C 906.776 692.336 914.941 663.041 904.632 625.82 C 882.454 609.336 848.67 602.126 821.245 600.097 C 795.553 598.07 712.995 599.661 693.152 623.734 C 677.375 642.874 687.521 702.831 673.006 726.632 C 665.476 738.979 658.956 746.392 647.978 756.256 C 588.366 819.609 573.373 874.681 573.94 958.686 L 559.646 952.555 C 557.044 878.603 575.313 820.295 622.159 762.797 C 632.313 748.005 650.981 736.882 659.205 721.144 C 671.814 695.865 665.742 666.843 671.8 639.803 C 689.559 560.537 716.693 481.615 723.834 400.432 C 725.64 388.121 705.733 387.39 705.078 378.598 C 703.243 353.966 706.314 336.98 718.886 316.085 C 713.515 313.496 705.859 310.518 707.079 303.416 C 708.905 292.788 708.573 271.404 710.85 262.427 C 716.916 238.5 755.329 233.12 775.925 231.414 z" fill="rgb(204,202,196)" transform="translate(0,0)"></path>
<path d="M 559.917 1291.27 C 565.006 1293.38 569.728 1294.92 574.95 1296.64 C 579.217 1330.2 584.392 1342.03 593.862 1374.59 C 603.962 1409.31 607.253 1450.61 602.308 1486.51 C 597.227 1523.41 581.409 1558.79 577.974 1595.99 C 574.595 1632.59 570.658 1684.3 594.869 1714.24 C 627.033 1754.02 699.083 1770.21 747.842 1775.76 C 819.174 1783.88 926.157 1775.26 985.251 1729.51 C 996.681 1720.66 1009.34 1705 1014.01 1691.05 C 1023.91 1659.53 1023.01 1599.43 1012.81 1568.11 C 990.561 1499.77 981.341 1440.47 1002.53 1369.8 C 1009.68 1345.97 1018.49 1322.47 1021.34 1296.19 L 1036.04 1291.52 C 1035 1303.26 1033.27 1314.93 1030.84 1326.46 C 1027.49 1341.93 1021.98 1355.52 1017.78 1370.48 C 1004.99 1416.13 999.651 1464.25 1012.22 1510.6 C 1020.84 1542.38 1031.3 1567.58 1033.94 1601.03 C 1035.83 1625.05 1035.22 1644.49 1034.55 1668.55 C 1034.18 1681.42 1038.23 1694.21 1034.22 1708.66 C 1030.24 1723.02 1022.59 1736.26 1013.18 1747.54 C 974.443 1793.93 898.132 1811.65 840.054 1815.55 C 762.389 1820.78 657.636 1814.81 595.432 1761.42 C 576.229 1744.94 560.001 1721.79 559.815 1695.53 C 559.755 1687.03 562.372 1676.52 561.964 1668.11 C 561.191 1639.23 559.113 1604.6 565.7 1576.2 C 576.728 1528.66 591.056 1496.05 589.879 1445.88 C 588.584 1390.62 563.988 1344.8 559.917 1291.27 z" fill="rgb(204,202,196)" transform="translate(0,0)"></path>
<path d="M 698.738 765.139 C 772.607 756.44 736.166 947.144 648.156 969.819 C 571.071 975.218 617.651 786.656 698.738 765.139 z" fill="rgb(204,202,196)" transform="translate(0,0)"></path>
<path d="M 649.441 1517.21 C 707.992 1513.21 720.109 1646.78 659.734 1669.85 C 596.28 1673.59 590.339 1535.81 649.441 1517.21 z" fill="rgb(204,202,196)" transform="translate(0,0)"></path>
<path d="M 649.299 1347.18 C 676.971 1346.26 685.378 1385.11 689.866 1406.31 C 694.761 1429.43 690.219 1461.43 677.844 1481.83 C 674.57 1487.23 671.166 1488.72 665.24 1489.76 C 643.736 1483.24 629.176 1427.85 624.335 1407.05 C 618.494 1381.96 618.909 1353.18 649.299 1347.18 z" fill="rgb(204,202,196)" transform="translate(0,0)"></path>
<path d="M 635.805 1700.46 C 650.88 1700.67 665.238 1701.6 680.22 1703.23 C 722.354 1707.8 765.068 1713.48 804.641 1729.4 C 808.612 1731 815.351 1735.09 816.648 1739.28 C 819.593 1748.76 801.071 1750.7 795.04 1751.69 C 750.683 1757.66 687.03 1742.71 644.784 1728.64 C 636.874 1726.01 611.125 1716.01 617.357 1704.81 C 623.137 1700.44 628.718 1700.77 635.805 1700.46 z" fill="rgb(204,202,196)" transform="translate(0,0)"></path>
<path d="M 729.358 634.739 C 757.387 633.573 760.646 718.35 722.121 738.227 C 693.462 744.918 700.645 700.539 703.875 685.4 C 707.978 666.168 712.15 646.421 729.358 634.739 z" fill="rgb(204,202,196)" transform="translate(0,0)"></path>
<metadata><recraft-signature>{"signed_by": "recraft", "signature_b64": "QwVFgSoN6Tu+O08uS5O2w01QdnYqHlfHROISeN35w+PVPsKAQMA1bU6tlZtKAzQ/Hcd7S1c94UD/JR7o6QXXBg==", "signing_algo": "Ed25519", "generation_timestamp": 1779413584, "identifier": "151b0a49-43ef-4d58-ad67-e47d6dbcdec2"}</recraft-signature></metadata></svg>